<?xml version="1.0" encoding="UTF-8" standalone="no"?>
<!-- Created with Inkscape (http://www.inkscape.org/) -->

<svg
   width="3072"
   height="3072"
   viewBox="0 0 3072 3072"
   version="1.1"
   id="svg1"
   inkscape:version="1.4.2 (1:1.4.2+202505120737+ebf0e940d0)"
   sodipodi:docname="icon.svg"
   inkscape:export-filename="icon.1024.png"
   inkscape:export-xdpi="32"
   inkscape:export-ydpi="32"
   xmlns:inkscape="http://www.inkscape.org/namespaces/inkscape"
   xmlns:sodipodi="http://sodipodi.sourceforge.net/DTD/sodipodi-0.dtd"
   xmlns:xlink="http://www.w3.org/1999/xlink"
   xmlns="http://www.w3.org/2000/svg"
   xmlns:svg="http://www.w3.org/2000/svg"
   xmlns:rdf="http://www.w3.org/1999/02/22-rdf-syntax-ns#"
   xmlns:cc="http://creativecommons.org/ns#"
   xmlns:dc="http://purl.org/dc/elements/1.1/">
  <title
     id="title5">Open Education icon</title>
  <sodipodi:namedview
     id="namedview1"
     pagecolor="#ffffff"
     bordercolor="#808080"
     borderopacity="1"
     inkscape:showpageshadow="0"
     inkscape:pageopacity="0"
     inkscape:pagecheckerboard="1"
     inkscape:deskcolor="#505050"
     inkscape:document-units="px"
     showgrid="true"
     showguides="true"
     inkscape:zoom="0.21"
     inkscape:cx="2e+03"
     inkscape:cy="1.5e+03"
     inkscape:window-width="1920"
     inkscape:window-height="997"
     inkscape:window-x="0"
     inkscape:window-y="1080"
     inkscape:window-maximized="1"
     inkscape:current-layer="layer5">
    <sodipodi:guide
       position="0,3072"
       orientation="0,3072"
       id="guide1"
       inkscape:locked="false" />
    <sodipodi:guide
       position="3072,3072"
       orientation="3072,0"
       id="guide2"
       inkscape:locked="false" />
    <sodipodi:guide
       position="3072,0"
       orientation="0,-3072"
       id="guide3"
       inkscape:locked="false" />
    <sodipodi:guide
       position="0,0"
       orientation="-3072,0"
       id="guide4"
       inkscape:locked="false" />
    <inkscape:grid
       id="grid4"
       units="px"
       originx="0"
       originy="0"
       spacingx="24"
       spacingy="24"
       empcolor="#0099e5"
       empopacity="0.3"
       color="#0099e5"
       opacity="0.15"
       empspacing="8"
       enabled="true"
       visible="true" />
    <sodipodi:guide
       position="1104,1536"
       orientation="0,-1"
       id="guide6"
       inkscape:locked="false" />
    <sodipodi:guide
       position="1536,3.1e+03"
       orientation="1,0"
       id="guide7"
       inkscape:locked="false" />
    <sodipodi:guide
       position="1392,2496"
       orientation="0,-1"
       id="guide8"
       inkscape:locked="false" />
    <sodipodi:guide
       position="1392,2112"
       orientation="0,-1"
       id="guide9"
       inkscape:locked="false" />
    <sodipodi:guide
       position="1392,1728"
       orientation="0,-1"
       id="guide10"
       inkscape:locked="false" />
    <sodipodi:guide
       position="1248,1344"
       orientation="0,-1"
       id="guide11"
       inkscape:locked="false" />
    <sodipodi:guide
       position="576,2496"
       orientation="1,0"
       id="guide12"
       inkscape:locked="false" />
    <sodipodi:guide
       position="2496,2352"
       orientation="1,0"
       id="guide13"
       inkscape:locked="false" />
  </sodipodi:namedview>
  <defs
     id="defs1">
    <color-profile
       name="sRGB"
       xlink:href="file:///usr/share/color/icc/colord/sRGB.icc"
       id="color-profile1" />
    <color-profile
       name="Sceptre-T24"
       xlink:href="../../../../.local/share/icc/edid-436ffd41eec0e5dbd8c5e20f9a696595.icc"
       id="color-profile2" />
  </defs>
  <g
     inkscape:groupmode="layer"
     id="layer5"
     inkscape:label="Icon">
    <path
       style="fill:#808080;fill-opacity:1;stroke:none;stroke-width:8;stroke-linecap:round;stroke-linejoin:round"
       d="m 1400,2100 c 100,0 200,0 200,0 v 0 l 900,0 v -100 c 0,0 -800,0 -900,0 0,0 -100,0 -100,0 0,0 0,0 -100,0 -100,0 -800,0 -800,0 v 100 l 800,0 z"
       id="path6"
       sodipodi:nodetypes="cccccccccccc" />
    <path
       style="fill:#ff4020;fill-opacity:1;stroke:none;stroke-width:8;stroke-linecap:round;stroke-linejoin:round"
       d="m 600,2200 c 20,0 800,-100 800,-100 0,0 0,0 0,0 0,100 200,100 300,0 0,0 -100,0 -100,0 0,0 800,100 900,100 0,0 0,-100 0,-100 -100,0 -800,0 -900,0 0,0 0,0 0,0 h -100 c 0,0 0,0 -100,0 0,0 -780,0 -800,0 -20,0 -20,100 0,100 z"
       id="path4"
       sodipodi:nodetypes="ccccccccccccc" />
    <rect
       style="fill:#808080;fill-opacity:1;stroke:none;stroke-width:8;stroke-linecap:round;stroke-linejoin:round;stroke-opacity:1"
       id="rect8"
       width="1108"
       height="100"
       x="1560"
       y="2448" />
    <rect
       style="fill:#808080;fill-opacity:1;stroke:none;stroke-width:8;stroke-linecap:round;stroke-linejoin:round;stroke-opacity:1"
       id="rect7"
       width="696"
       height="96"
       x="1560"
       y="2304" />
    <rect
       style="fill:#808080;fill-opacity:1;stroke:none;stroke-width:8;stroke-linecap:round;stroke-linejoin:round;stroke-opacity:1"
       id="rect6"
       width="696"
       height="96"
       x="816"
       y="2304" />
    <rect
       style="fill:#808080;fill-opacity:1;stroke:none;stroke-width:8;stroke-linecap:round;stroke-linejoin:round;stroke-opacity:1"
       id="rect5"
       width="1104"
       height="96"
       x="984"
       y="2160" />
    <path
       style="fill:#000080;fill-opacity:1;stroke:none;stroke-width:8;stroke-linecap:round;stroke-linejoin:round"
       d="m 960,910 v 90 l 540,200 600,-200 v -90 l -600,290 z"
       id="path5"
       sodipodi:nodetypes="ccccccc" />
    <path
       style="fill:#0040ff;fill-opacity:1;stroke:none;stroke-width:8;stroke-linecap:round;stroke-linejoin:round;stroke-dasharray:8, 16;stroke-dashoffset:0;stroke-opacity:1"
       d="m 1536,384 -960,384 960,384 960,-384 z"
       id="path13"
       sodipodi:nodetypes="ccccc" />
    <path
       style="fill:#0040ff;fill-opacity:1;stroke:none;stroke-width:8;stroke-linecap:round;stroke-linejoin:round;stroke-dasharray:8, 16;stroke-dashoffset:0;stroke-opacity:1"
       d="m 960,1008 576,240 576,-240 v 528 c -400,251 -812,262 -1152,0 z"
       id="path14"
       sodipodi:nodetypes="cccccc" />
    <path
       style="fill:none;fill-opacity:1;stroke:#ff2020;stroke-width:64;stroke-linecap:round;stroke-linejoin:round;stroke-dasharray:none;stroke-dashoffset:0;stroke-opacity:1"
       d="m 1300,770 c 0,0 -410,20 -510,50 -20,10 -40,20 -50,70 -20,110 10,210 30,310"
       id="path15"
       sodipodi:nodetypes="cccc" />
    <circle
       style="fill:#ff2020;fill-opacity:1;stroke:none;stroke-width:90.6667;stroke-linecap:round;stroke-linejoin:round;stroke-dasharray:none;stroke-dashoffset:0;stroke-opacity:1"
       id="path16"
       r="68"
       cy="1200"
       cx="772" />
    <path
       style="fill:#ff2020;fill-opacity:1;stroke:#ff2020;stroke-width:64;stroke-linecap:round;stroke-linejoin:round;stroke-dasharray:none;stroke-dashoffset:0;stroke-opacity:1"
       d="m 774,1288 c 20,100 40,200 -10,300 h -90 c 70,-100 70,-200 100,-300 z"
       id="path17"
       sodipodi:nodetypes="cccc" />
    <path
       style="fill:none;stroke:#000000;stroke-width:8;stroke-linecap:round;stroke-linejoin:round"
       d="m 624,2064 816,-68"
       id="path7"
       sodipodi:nodetypes="cc" />
    <path
       style="fill:none;stroke:#000000;stroke-width:8;stroke-linecap:round;stroke-linejoin:round"
       d="m 1440,2020 -816,68"
       id="path8"
       sodipodi:nodetypes="cc" />
    <path
       style="fill:none;stroke:#000000;stroke-width:8;stroke-linecap:round;stroke-linejoin:round"
       d="m 624,2112 816,-68"
       id="path9"
       sodipodi:nodetypes="cc" />
    <path
       style="fill:none;stroke:#000000;stroke-width:8;stroke-linecap:round;stroke-linejoin:round"
       d="m 1632,1996 816,68"
       id="path10"
       sodipodi:nodetypes="cc" />
    <path
       style="fill:none;stroke:#000000;stroke-width:8;stroke-linecap:round;stroke-linejoin:round"
       d="m 2448,2088 -816,-68"
       id="path11"
       sodipodi:nodetypes="cc" />
    <path
       style="fill:none;stroke:#000000;stroke-width:8;stroke-linecap:round;stroke-linejoin:round"
       d="m 1632,2044 816,68"
       id="path12"
       sodipodi:nodetypes="cc" />
    <path
       style="fill:none;stroke:#000000;stroke-width:8;stroke-linecap:round;stroke-linejoin:round"
       d="m 1536,1996 v 120"
       id="path18" />
    <path
       style="fill:none;stroke:#000000;stroke-width:8;stroke-linecap:round;stroke-linejoin:round"
       d="m 600,2016 c 0,0 744,-96 840,-92 48,0 96,72 96,72"
       id="path19"
       sodipodi:nodetypes="ccc" />
    <path
       style="fill:none;stroke:#000000;stroke-width:8;stroke-linecap:round;stroke-linejoin:round"
       d="m 2472,2016 c 0,0 -744,-96 -840,-92 -48,0 -96,72 -96,72"
       id="path20"
       sodipodi:nodetypes="ccc" />
    <path
       style="fill:#20c040;stroke:none;stroke-width:8;stroke-linecap:round;stroke-linejoin:round;fill-opacity:1"
       d="m 984,2136 h 1104 c 24,0 24,24 0,24 H 984 c -24,0 -24,-24 0,-24 z"
       id="path21"
       sodipodi:nodetypes="ccccc" />
    <path
       style="fill:#20c040;stroke:none;stroke-width:8;stroke-linecap:round;stroke-linejoin:round;fill-opacity:1"
       d="m 984,2256 h 1104 c 24,0 24,24 0,24 H 984 c -24,0 -24,-24 0,-24 z"
       id="path22"
       sodipodi:nodetypes="ccccc" />
    <path
       style="fill:none;stroke:#000000;stroke-width:8;stroke-linecap:round;stroke-linejoin:round"
       d="M 1008,2184 H 2064"
       id="path25" />
    <path
       style="fill:none;stroke:#000000;stroke-width:8;stroke-linecap:round;stroke-linejoin:round"
       d="M 2064,2208 H 1008"
       id="path26" />
    <path
       style="fill:none;stroke:#000000;stroke-width:8;stroke-linecap:round;stroke-linejoin:round"
       d="M 1008,2232 H 2064"
       id="path27" />
    <path
       style="fill:#2040ff;stroke:none;stroke-width:8;stroke-linecap:round;stroke-linejoin:round;fill-opacity:1"
       d="M 1512,2280 H 816 c -24,0 -24,24 -24,24 0,0 0,-24 -24,-24 -24,0 -24,144 0,144 24,0 24,-24 24,-24 0,0 0,24 24,24 h 696 c 24,0 24,-24 0,-24 H 816 v -96 h 696 c 24,0 24,-24 0,-24 z"
       id="path28"
       sodipodi:nodetypes="ccccccccccccc" />
    <path
       style="fill:none;stroke:#000000;stroke-width:8;stroke-linecap:round;stroke-linejoin:round"
       d="M 1488,2328 H 840"
       id="path30" />
    <path
       style="fill:none;stroke:#000000;stroke-width:8;stroke-linecap:round;stroke-linejoin:round"
       d="m 840,2352 h 648"
       id="path31" />
    <path
       style="fill:none;stroke:#000000;stroke-width:8;stroke-linecap:round;stroke-linejoin:round"
       d="M 1488,2376 H 840"
       id="path32" />
    <path
       style="fill:#ff0000;fill-opacity:1;stroke:none;stroke-width:8;stroke-linecap:round;stroke-linejoin:round"
       d="m 1600,2300 h 700 c 0,0 0,0 0,0 0,0 0,0 0,0 0,0 0,100 0,100 0,0 0,0 0,0 0,0 0,0 0,0 h -700 c -100,0 -100,0 0,0 h 700 v -100 h -700 c -100,0 -100,0 0,0 z"
       id="path28-3"
       sodipodi:nodetypes="ccccccccccccc" />
    <path
       style="fill:#c0c020;fill-opacity:1;stroke:none;stroke-width:8;stroke-linecap:round;stroke-linejoin:round"
       d="m 1600,2400 h 1100 c 0,0 0,0 0,0 H 1600 c -100,0 -100,0 0,0 z"
       id="path21-5"
       sodipodi:nodetypes="ccccc" />
    <path
       style="fill:#c0c020;fill-opacity:1;stroke:none;stroke-width:8;stroke-linecap:round;stroke-linejoin:round"
       d="m 1600,2500 h 1100 c 0,0 0,100 0,100 H 1600 c -100,0 -100,-100 0,-100 z"
       id="path22-9"
       sodipodi:nodetypes="ccccc" />
    <path
       style="fill:none;stroke:#000000;stroke-width:8;stroke-linecap:round;stroke-linejoin:round"
       d="M 1588,2476 H 2644"
       id="path25-8" />
    <path
       style="fill:none;stroke:#000000;stroke-width:8;stroke-linecap:round;stroke-linejoin:round"
       d="M 2644,2500 H 1588"
       id="path26-9" />
    <path
       style="fill:none;stroke:#000000;stroke-width:8;stroke-linecap:round;stroke-linejoin:round"
       d="M 1588,2524 H 2644"
       id="path27-7" />
    <path
       style="fill:none;stroke:#000000;stroke-width:8;stroke-linecap:round;stroke-linejoin:round"
       d="m 1600,2300 h 600"
       id="path30-6"
       sodipodi:nodetypes="cc" />
    <path
       style="fill:none;stroke:#000000;stroke-width:8;stroke-linecap:round;stroke-linejoin:round"
       d="M 2200,2400 H 1600"
       id="path31-2"
       sodipodi:nodetypes="cc" />
    <path
       style="fill:none;stroke:#000000;stroke-width:8;stroke-linecap:round;stroke-linejoin:round"
       d="m 1600,2400 h 600"
       id="path32-9"
       sodipodi:nodetypes="cc" />
    <path
       style="fill:#80c0ff;stroke:none;stroke-width:9.63613;stroke-linecap:round;stroke-linejoin:round;fill-opacity:1"
       d="M 1536,2424 H 384 l -0.1,144 H 1536 Z"
       id="path33"
       sodipodi:nodetypes="ccccc" />
    <text
       xml:space="preserve"
       style="font-weight:bold;font-size:64px;line-height:1.2;font-family:'Noto Sans';-inkscape-font-specification:'Noto Sans Bold';text-align:start;writing-mode:lr-tb;direction:ltr;text-anchor:start;fill:none;stroke:#000000;stroke-width:8;stroke-linecap:round;stroke-linejoin:round"
       x="408"
       y="2496"
       id="text33"><tspan
         sodipodi:role="line"
         id="tspan33"
         x="408"
         y="2496"
         style="font-size:64px;fill:#000000;fill-opacity:1;stroke:none" /></text>
    <text
       xml:space="preserve"
       style="font-weight:bold;font-size:97.854px;line-height:1.2;font-family:'Noto Sans';-inkscape-font-specification:'Noto Sans Bold';text-align:center;writing-mode:lr-tb;direction:ltr;text-anchor:middle;fill:#000000;fill-opacity:1;stroke:none;stroke-width:10.8727;stroke-linecap:round;stroke-linejoin:round;stroke-opacity:1"
       x="957.7"
       y="2521"
       id="text38"><tspan
         sodipodi:role="line"
         id="tspan38"
         x="957.7"
         y="2521"
         style="text-align:center;text-anchor:middle;stroke-width:10.8727">Knowledge</tspan></text>
  </g>
  <metadata
     id="metadata5">
    <rdf:RDF>
      <cc:Work
         rdf:about="">
        <dc:title>Open Education icon</dc:title>
        <dc:date>2025-05-29</dc:date>
        <dc:creator>
          <cc:Agent>
            <dc:title>JEleniel</dc:title>
          </cc:Agent>
        </dc:creator>
        <dc:rights>
          <cc:Agent>
            <dc:title>Copyright © 2025 JEleniel, all rights reserved.</dc:title>
          </cc:Agent>
        </dc:rights>
      </cc:Work>
    </rdf:RDF>
  </metadata>
</svg>
